HIERARCHY
ROOT Hips
{
	OFFSET 0.000000 0.000000 0.000000
	CHANNELS 6 Xposition Yposition Zposition Zrotation Yrotation Xrotation 
	JOINT LHipJoint
	{
		OFFSET 0.000000 0.000000 0.000000
		CHANNELS 3 Zrotation Yrotation Xrotation
		JOINT LeftUpLeg
		{
			OFFSET 1.363060 -1.794630 0.839290
			CHANNELS 3 Zrotation Yrotation Xrotation
			JOINT LeftLeg
			{
				OFFSET 2.448110 -6.726130 0.000000
				CHANNELS 3 Zrotation Yrotation Xrotation
				JOINT LeftFoot
				{
					OFFSET 2.562200 -7.039590 0.000000
					CHANNELS 3 Zrotation Yrotation Xrotation
					JOINT LeftToeBase
					{
						OFFSET 0.157640 -0.433110 2.322550
						CHANNELS 3 Zrotation Yrotation Xrotation
						End Site
						{
							OFFSET 0.000000 0.000000 0.000000
						}
					}
				}
			}
		}
	}
	JOINT RHipJoint
	{
		OFFSET 0.000000 0.000000 0.000000
		CHANNELS 3 Zrotation Yrotation Xrotation
		JOINT RightUpLeg
		{
			OFFSET -1.305520 -1.794630 0.839290
			CHANNELS 3 Zrotation Yrotation Xrotation
			JOINT RightLeg
			{
				OFFSET -2.542530 -6.985550 0.000000
				CHANNELS 3 Zrotation Yrotation Xrotation
				JOINT RightFoot
				{
					OFFSET -2.568260 -7.056230 0.000000
					CHANNELS 3 Zrotation Yrotation Xrotation
					JOINT RightToeBase
					{
						OFFSET -0.164730 -0.452590 2.363150
						CHANNELS 3 Zrotation Yrotation Xrotation
						End Site
						{
							OFFSET 0.000000 0.000000 0.000000
						}
					}
				}
			}
		}
	}
	JOINT LowerBack
	{
		OFFSET 0.000000 0.000000 0.000000
		CHANNELS 3 Zrotation Yrotation Xrotation
		JOINT Spine
		{
			OFFSET 0.028270 2.035590 -0.193380
			CHANNELS 3 Zrotation Yrotation Xrotation
			JOINT Spine1
			{
				OFFSET 0.056720 2.048850 -0.042750
				CHANNELS 3 Zrotation Yrotation Xrotation
				JOINT Neck
				{
					OFFSET 0.000000 0.000000 0.000000
					CHANNELS 3 Zrotation Yrotation Xrotation
					JOINT Neck1
					{
						OFFSET -0.054170 1.746240 0.172020
						CHANNELS 3 Zrotation Yrotation Xrotation
						JOINT Head
						{
							OFFSET 0.104070 1.761360 -0.123970
							CHANNELS 3 Zrotation Yrotation Xrotation
							End Site
							{
								OFFSET 0.000000 0.000000 0.000000
							}
						}
					}
				}
				JOINT LeftShoulder
				{
					OFFSET 0.000000 0.000000 0.000000
					CHANNELS 3 Zrotation Yrotation Xrotation
					JOINT LeftArm
					{
						OFFSET 3.362410 1.200890 -0.311210
						CHANNELS 3 Zrotation Yrotation Xrotation
						JOINT LeftForeArm
						{
							OFFSET 4.983000 -0.000000 -0.000000
							CHANNELS 3 Zrotation Yrotation Xrotation
							JOINT LeftHand
							{
								OFFSET 3.483560 -0.000000 -0.000000
								CHANNELS 3 Zrotation Yrotation Xrotation
								JOINT LeftFingerBase
								{
									OFFSET 0.000000 0.000000 0.000000
									CHANNELS 3 Zrotation Yrotation Xrotation
									JOINT LeftHandIndex1
									{
										OFFSET 0.715260 -0.000000 -0.000000
										CHANNELS 3 Zrotation Yrotation Xrotation
										End Site
										{
											OFFSET 0.000000 0.000000 0.000000
										}
									}
								}
								JOINT LThumb
								{
									OFFSET 0.000000 0.000000 0.000000
									CHANNELS 3 Zrotation Yrotation Xrotation
									End Site
									{
										OFFSET 0.000000 0.000000 0.000000
									}
								}
							}
						}
					}
				}
				JOINT RightShoulder
				{
					OFFSET 0.000000 0.000000 0.000000
					CHANNELS 3 Zrotation Yrotation Xrotation
					JOINT RightArm
					{
						OFFSET -3.136600 1.374050 -0.404650
						CHANNELS 3 Zrotation Yrotation Xrotation
						JOINT RightForeArm
						{
							OFFSET -5.241900 -0.000000 -0.000000
							CHANNELS 3 Zrotation Yrotation Xrotation
							JOINT RightHand
							{
								OFFSET -3.444170 -0.000000 -0.000000
								CHANNELS 3 Zrotation Yrotation Xrotation
								JOINT RightFingerBase
								{
									OFFSET 0.000000 0.000000 0.000000
									CHANNELS 3 Zrotation Yrotation Xrotation
									JOINT RightHandIndex1
									{
										OFFSET -0.622530 -0.000000 -0.000000
										CHANNELS 3 Zrotation Yrotation Xrotation
										End Site
										{
											OFFSET 0.000000 0.000000 0.000000
										}
									}
								}
								JOINT RThumb
								{
									OFFSET 0.000000 0.000000 0.000000
									CHANNELS 3 Zrotation Yrotation Xrotation
									End Site
									{
										OFFSET 0.000000 0.000000 0.000000
									}
								}
							}
						}
					}
				}
			}
		}
	}
}
MOTION
Frames: 12
Frame Time: 0.008333
-1.770518 17.540801 0.173778 17.175427 83.915314 35.725479 -10.783846 0.245826 -1.499819 -10.997124 3.806600 -38.152547 -0.344309 2.815069 50.804592 2.879295 17.211419 -3.983481 1.359400 0.000000 -27.838100 8.630927 -0.770656 0.395471 8.500389 1.459728 -14.838869 2.695936 1.055881 3.997706 -0.511148 -1.856501 -3.356716 -0.527700 -0.000000 -36.677400 1.401825 -1.289066 2.296055 -0.549268 -1.360982 -2.475705 -6.391782 -1.435026 0.664894 8.941939 -2.537188 -3.644918 -3.849095 -0.319630 0.931509 0.000000 0.000000 0.000000 -2.013691 3.000772 2.614053 -55.093036 4.716574 17.952704 -3.540635 -38.935154 -0.010077 -6.866977 3.705887 -0.220349 -0.109301 -0.034390 0.000000 0.000000 0.000000 0.000000 0.000000 0.000000 0.000000 16.150848 -0.732617 1.129309 59.445628 16.177360 18.887743 2.664049 42.253470 0.015648 5.264487 6.413026 0.300163 0.026003 -0.127541 0.000000 0.000000 0.000000 0.000000 0.000000 0.000000 0.000000 
-1.561337 17.551250 0.211682 19.618239 83.861684 38.171928 -10.603592 0.137109 -1.313071 -11.355857 3.416612 -38.830302 -0.507454 2.628688 48.465470 2.890456 17.034928 -4.367938 1.282401 0.000000 -27.732400 8.737835 -0.846195 0.344743 8.245561 0.970361 -13.457861 2.671688 1.154153 2.604832 -0.466983 -1.755851 -2.928382 -0.539400 0.000000 -37.100700 0.803798 -1.252854 2.127133 -0.652591 -1.295105 -2.508082 -6.329106 -1.369549 0.667082 8.803877 -2.670090 -3.698012 -3.801394 -0.316743 0.920625 0.000000 0.000000 0.000000 -2.179547 3.164902 2.606893 -55.312550 5.529839 18.505672 -3.573963 -38.486287 -0.011482 -7.164692 3.893734 -0.242299 -0.107782 -0.041408 0.000000 0.000000 0.000000 0.000000 0.000000 0.000000 0.000000 15.844103 -0.727521 1.105066 59.159392 16.820218 19.945451 2.549883 44.099632 0.015984 5.301226 6.392762 0.301872 0.022161 -0.134924 0.000000 0.000000 0.000000 0.000000 0.000000 0.000000 0.000000 
-1.353054 17.555390 0.246542 21.206023 83.795762 39.755596 -10.426213 0.038542 -1.124907 -11.606925 3.064570 -39.416246 -0.673232 2.434443 45.942442 2.901247 16.858298 -4.606468 1.250600 -0.000001 -27.792300 8.837304 -0.916852 0.277303 8.066307 0.498238 -12.122573 2.651911 1.238860 1.361946 -0.426581 -1.660568 -2.544933 -0.547200 0.000000 -37.612800 0.288422 -1.204463 1.982624 -0.740723 -1.220202 -2.537422 -6.266350 -1.295103 0.663524 8.647256 -2.795152 -3.752121 -3.751462 -0.313608 0.909315 0.000000 0.000000 0.000000 -2.370313 3.329895 2.598041 -55.499428 6.379919 19.027035 -3.596060 -38.150763 -0.012773 -7.418924 4.048410 -0.261448 -0.105977 -0.048005 -0.000000 0.000000 0.000000 0.000000 0.000000 0.000000 0.000000 15.503672 -0.709364 1.089379 58.816203 17.497433 20.904046 2.439515 45.913123 0.016361 5.320654 6.382887 0.303077 0.018610 -0.142718 0.000000 0.000000 0.000000 0.000000 0.000000 0.000000 0.000000 
-1.145942 17.553092 0.277966 21.961524 83.719082 40.495811 -10.261507 -0.052762 -0.936821 -11.745303 2.755601 -39.905770 -0.839780 2.231766 43.240004 2.907580 16.669045 -4.692331 1.263999 0.000000 -27.948700 8.917907 -0.981846 0.192090 7.964373 0.060575 -10.820968 2.637993 1.312569 0.273628 -0.393133 -1.583069 -2.236439 -0.551700 -0.000000 -38.194000 -0.145303 -1.142813 1.866321 -0.813366 -1.135340 -2.563192 -6.201731 -1.210674 0.653475 8.472657 -2.907334 -3.805361 -3.698350 -0.310176 0.898072 0.000000 0.000000 0.000000 -2.583862 3.493597 2.587307 -55.668832 7.261324 19.505725 -3.607539 -37.914119 -0.013916 -7.623076 4.167051 -0.277196 -0.103887 -0.054145 -0.000000 0.000000 0.000000 0.000000 0.000000 0.000000 0.000000 15.125618 -0.673284 1.083055 58.411873 18.209162 21.770791 2.332862 47.686940 0.016767 5.320391 6.386333 0.303784 0.015372 -0.150889 0.000000 0.000000 0.000000 0.000000 0.000000 0.000000 0.000000 
-0.940088 17.544270 0.305590 21.916411 83.634919 40.426533 -10.116328 -0.140264 -0.747343 -11.765932 2.486968 -40.307088 -1.004143 2.019675 40.370206 2.905161 16.453339 -4.619565 1.321900 -0.000000 -28.133399 8.971211 -1.040510 0.092087 7.941491 -0.321037 -9.545238 2.630506 1.378822 -0.665537 -0.370151 -1.539946 -2.028928 -0.554200 -0.000000 -38.784800 -0.497122 -1.068018 1.774364 -0.869840 -1.040965 -2.585703 -6.133209 -1.116655 0.638396 8.281122 -3.000386 -3.856623 -3.640951 -0.306380 0.887250 0.000000 0.000000 0.000000 -2.812739 3.663713 2.574348 -55.841176 8.156129 19.933688 -3.610226 -37.748643 -0.014878 -7.775798 4.247537 -0.288741 -0.101557 -0.059750 -0.000000 0.000000 0.000000 0.000000 0.000000 0.000000 0.000000 14.705681 -0.613977 1.084810 57.944039 18.951754 22.551326 2.229382 49.410792 0.017173 5.295366 6.407947 0.303988 0.012477 -0.159391 0.000000 0.000000 0.000000 0.000000 0.000000 0.000000 0.000000 
-0.735797 17.528965 0.329643 21.212126 83.540424 39.673411 -9.991945 -0.225230 -0.562755 -11.683732 2.269969 -40.601305 -1.166396 1.796405 37.338581 2.887202 16.184725 -4.403826 1.414400 0.000000 -28.283301 8.999731 -1.090761 -0.030901 7.982084 -0.670746 -8.277529 2.629725 1.436185 -1.448306 -0.354486 -1.507952 -1.937616 -0.551200 -0.000001 -39.441500 -0.779027 -0.982205 1.722023 -0.912703 -0.938340 -2.602574 -6.062161 -1.014207 0.615583 8.079422 -3.078798 -3.902525 -3.580504 -0.302339 0.877579 0.000000 0.000000 0.000000 -3.060928 3.815978 2.558894 -56.009906 9.093417 20.302735 -3.602664 -37.677925 -0.015669 -7.873280 4.297595 -0.296287 -0.098878 -0.064993 -0.000000 0.000000 0.000000 0.000000 0.000000 0.000000 0.000000 14.258424 -0.538809 1.098223 57.403520 19.732066 23.251804 2.129888 51.088390 0.017586 5.268270 6.432934 0.304092 0.009711 -0.168018 0.000000 0.000000 0.000000 0.000000 0.000000 0.000000 0.000000 
-0.532576 17.507169 0.349984 19.879485 83.440122 38.283974 -9.890132 -0.309693 -0.375089 -11.494327 2.089054 -40.824721 -1.322417 1.562056 34.173601 2.849575 15.847425 -4.039039 1.538800 0.000000 -28.378700 9.000138 -1.132516 -0.166024 8.089214 -0.961084 -7.024005 2.635226 1.489882 -2.095365 -0.349634 -1.507872 -1.972738 -0.545100 -0.000000 -40.045000 -0.988265 -0.886882 1.689046 -0.940846 -0.829732 -2.616410 -5.986743 -0.905622 0.589826 7.869119 -3.133047 -3.942866 -3.516072 -0.298004 0.869333 0.000000 0.000000 0.000000 -3.315316 3.973338 2.540428 -56.199761 10.037769 20.610672 -3.588604 -37.656024 -0.016280 -7.926347 4.317155 -0.300128 -0.095973 -0.069743 -0.000000 0.000000 0.000000 0.000000 0.000000 0.000000 0.000000 13.780406 -0.440162 1.118690 56.792557 20.537799 23.872690 2.033293 52.704325 0.017976 5.230928 6.468374 0.304093 0.007098 -0.176692 0.000000 0.000000 0.000000 0.000000 0.000000 0.000000 0.000000 
-0.330263 17.479106 0.366977 18.047011 83.332814 36.383253 -9.808162 -0.393716 -0.185624 -11.212797 1.945871 -40.984755 -1.471652 1.316730 30.897244 2.786470 15.416220 -3.541185 1.682600 -0.000000 -28.421400 8.978582 -1.164683 -0.314753 8.248862 -1.210217 -5.780054 2.646570 1.539663 -2.614457 -0.352253 -1.520494 -2.126228 -0.533800 0.000001 -40.633499 -1.134718 -0.785227 1.677257 -0.956327 -0.717795 -2.625823 -5.907533 -0.793436 0.564676 7.655870 -3.161865 -3.978631 -3.448336 -0.293400 0.862104 0.000000 0.000000 0.000000 -3.569210 4.149777 2.519282 -56.412049 10.964454 20.875315 -3.569736 -37.665419 -0.016719 -7.940468 4.310320 -0.300668 -0.092912 -0.073993 -0.000000 0.000000 0.000000 0.000000 0.000000 0.000000 0.000000 13.281672 -0.319405 1.143989 56.111797 21.364136 24.406242 1.939466 54.255965 0.018345 5.203642 6.504489 0.304690 0.004342 -0.185192 0.000000 0.000000 0.000000 0.000000 0.000000 0.000000 0.000000 
-0.128410 17.445075 0.380974 15.814951 83.219235 34.075596 -9.742642 -0.476715 0.007337 -10.853371 1.839775 -41.102216 -1.613593 1.061527 27.538039 2.693244 14.868494 -2.926480 1.832000 -0.000001 -28.454800 8.940867 -1.187494 -0.473697 8.450337 -1.428253 -4.550669 2.663455 1.585964 -3.015502 -0.359439 -1.530511 -2.383682 -0.515700 0.000000 -41.190800 -1.224380 -0.679805 1.679346 -0.960873 -0.605003 -2.632415 -5.827003 -0.680197 0.539196 7.445504 -3.167450 -4.006231 -3.379324 -0.288735 0.856990 0.000000 0.000000 0.000000 -3.824291 4.325971 2.494637 -56.641708 11.900620 21.084065 -3.546294 -37.718092 -0.017044 -7.929893 4.289313 -0.299306 -0.089647 -0.077919 -0.000000 0.000000 0.000000 0.000000 0.000000 0.000000 0.000000 12.778344 -0.182279 1.175379 55.357939 22.206754 24.855047 1.849196 55.736118 0.018703 5.198590 6.533776 0.306284 0.001318 -0.193321 0.000000 0.000000 0.000000 0.000000 0.000000 0.000000 0.000000 
0.073453 17.405533 0.392345 13.272909 83.100134 31.453135 -9.689259 -0.558057 0.203424 -10.433838 1.774880 -41.198009 -1.748787 0.798605 24.129963 2.566206 14.182951 -2.217922 1.969799 -0.000000 -28.542500 8.893688 -1.201950 -0.640059 8.682089 -1.628322 -3.341144 2.685560 1.628257 -3.309231 -0.367318 -1.519955 -2.717767 -0.490200 0.000000 -41.751001 -1.263463 -0.573198 1.690634 -0.956111 -0.493736 -2.636176 -5.746731 -0.568230 0.516790 7.242411 -3.149595 -4.026740 -3.310382 -0.284093 0.853666 0.000000 0.000000 0.000000 -4.076829 4.513813 2.466626 -56.885609 12.825472 21.252631 -3.520228 -37.797393 -0.017287 -7.907298 4.260208 -0.296841 -0.086260 -0.081545 -0.000000 0.000000 0.000000 0.000000 0.000000 0.000000 0.000000 12.281703 -0.030945 1.210531 54.534651 23.057529 25.210518 1.762667 57.137510 0.019070 5.231021 6.549940 0.309473 -0.002226 -0.200876 0.000000 0.000000 0.000000 0.000000 0.000000 0.000000 0.000000 
0.275799 17.361045 0.401461 10.489742 82.976229 28.586260 -9.643261 -0.637019 0.400505 -9.975185 1.761456 -41.292470 -1.878974 0.530966 20.711977 2.402942 13.340036 -1.445875 2.076600 0.000000 -28.761100 8.843595 -1.210049 -0.810865 8.933877 -1.823993 -2.157631 2.712766 1.665290 -3.503820 -0.371566 -1.470194 -3.094957 -0.457500 -0.000000 -42.357900 -1.256097 -0.467140 1.707802 -0.943402 -0.385596 -2.637266 -5.668861 -0.459113 0.499369 7.049777 -3.109851 -4.040503 -3.243224 -0.279594 0.852030 0.000000 0.000000 0.000000 -4.326709 4.717151 2.435263 -57.137255 13.729447 21.392212 -3.492888 -37.893978 -0.017492 -7.885835 4.231134 -0.294378 -0.082802 -0.084942 -0.000000 0.000000 0.000000 0.000000 0.000000 0.000000 0.000000 11.803221 0.131099 1.247994 53.647466 23.907957 25.465273 1.680388 58.451704 0.019460 5.313427 6.548157 0.314857 -0.006495 -0.207683 -0.000000 0.000000 0.000000 0.000000 0.000000 0.000000 0.000000 
0.479096 17.312266 0.408562 7.505099 82.846778 25.514177 -9.599348 -0.713103 0.594405 -9.501107 1.814890 -41.403255 -2.006730 0.262123 17.327424 2.202796 12.324321 -0.646046 2.133000 -0.000000 -29.197200 8.796816 -1.214372 -0.982928 9.196466 -2.025952 -1.006364 2.744946 1.695126 -3.603569 -0.367984 -1.364578 -3.480267 -0.418900 -0.000000 -43.059800 -1.204283 -0.362186 1.729536 -0.923835 -0.281058 -2.636041 -5.596318 -0.353323 0.486676 6.870175 -3.054240 -4.046942 -3.180074 -0.275417 0.852262 0.000000 0.000000 0.000000 -4.579351 4.925123 2.399943 -57.386271 14.623225 21.500566 -3.464856 -38.011650 -0.017718 -7.879395 4.212141 -0.293313 -0.079269 -0.088254 -0.000000 0.000000 0.000000 0.000000 0.000000 0.000000 0.000000 11.356565 0.296258 1.288509 52.699059 24.754310 25.619010 1.603287 59.668732 0.019897 5.450352 6.525951 0.322435 -0.011547 -0.213619 -0.000000 0.000000 0.000000 0.000000 0.000000 0.000000 0.000000 
